<svg xmlns="http://www.w3.org/2000/svg" xmlns:xlink="http://www.w3.org/1999/xlink" width="1630" zoomAndPan="magnify" viewBox="0 0 1222.5 374.250002" height="499" preserveAspectRatio="xMidYMid meet" version="1.0"><defs><clipPath id="634fa9a06e"><path d="M 0.972656 0 L 1221.027344 0 L 1221.027344 373.5 L 0.972656 373.5 Z M 0.972656 0 " clip-rule="nonzero"/></clipPath><clipPath id="354ad2f9dc"><path d="M 0.972656 0 L 610.929688 0 L 610.929688 372.824219 L 0.972656 372.824219 Z M 0.972656 0 " clip-rule="nonzero"/></clipPath><clipPath id="2ed8f40cfd"><path d="M 0.972656 0 L 610.929688 0 L 610.929688 372.824219 L 0.972656 372.824219 Z M 0.972656 0 " clip-rule="nonzero"/></clipPath><clipPath id="29d6a05729"><rect x="0" width="611" y="0" height="373"/></clipPath><clipPath id="58b092ae1f"><path d="M 610.929688 0 L 1220.890625 0 L 1220.890625 372.824219 L 610.929688 372.824219 Z M 610.929688 0 " clip-rule="nonzero"/></clipPath><clipPath id="64bf573f7f"><path d="M 0.929688 0 L 610.890625 0 L 610.890625 372.824219 L 0.929688 372.824219 Z M 0.929688 0 " clip-rule="nonzero"/></clipPath><clipPath id="caf7bc0bee"><rect x="0" width="611" y="0" height="373"/></clipPath></defs><g clip-path="url(#634fa9a06e)"><path fill="#ffffff" d="M 0.972656 0 L 1221.027344 0 L 1221.027344 373.5 L 0.972656 373.5 Z M 0.972656 0 " fill-opacity="1" fill-rule="nonzero"/></g><g clip-path="url(#354ad2f9dc)"><g transform="matrix(1, 0, 0, 1, 0.000000000000000111, 0.00000000000001836)"><g clip-path="url(#29d6a05729)"><g clip-path="url(#2ed8f40cfd)"><path fill="#0d1117" d="M 0.972656 0 L 611.183594 0 L 611.183594 372.824219 L 0.972656 372.824219 Z M 0.972656 0 " fill-opacity="1" fill-rule="nonzero"/></g></g></g></g><g clip-path="url(#58b092ae1f)"><g transform="matrix(1, 0, 0, 1, 610, 0.00000000000001836)"><g clip-path="url(#caf7bc0bee)"><g clip-path="url(#64bf573f7f)"><path fill="#0d1117" d="M 0.929688 0 L 611.140625 0 L 611.140625 372.824219 L 0.929688 372.824219 Z M 0.929688 0 " fill-opacity="1" fill-rule="nonzero"/></g></g></g></g></svg>